<?xml version="1.0" encoding="UTF-8" standalone="no"?>
<svg
   xmlns:dc="http://purl.org/dc/elements/1.1/"
   xmlns:cc="http://creativecommons.org/ns#"
   xmlns:rdf="http://www.w3.org/1999/02/22-rdf-syntax-ns#"
   xmlns:svg="http://www.w3.org/2000/svg"
   xmlns="http://www.w3.org/2000/svg"
   xmlns:sodipodi="http://sodipodi.sourceforge.net/DTD/sodipodi-0.dtd"
   xmlns:inkscape="http://www.inkscape.org/namespaces/inkscape"
   id="Layer_1"
   data-name="Layer 1"
   viewBox="0 0 793 304"
   version="1.1"
   sodipodi:docname="logo_klb-01.svg"
   width="793"
   height="304"
   inkscape:version="0.92.4 (5da689c313, 2019-01-14)">
  <metadata
     id="metadata37">
    <rdf:RDF>
      <cc:Work
         rdf:about="">
        <dc:format>image/svg+xml</dc:format>
        <dc:type
           rdf:resource="http://purl.org/dc/dcmitype/StillImage" />
        <dc:title>logo_klb</dc:title>
      </cc:Work>
    </rdf:RDF>
  </metadata>
  <sodipodi:namedview
     pagecolor="#ffffff"
     bordercolor="#666666"
     borderopacity="1"
     objecttolerance="10"
     gridtolerance="10"
     guidetolerance="10"
     inkscape:pageopacity="0"
     inkscape:pageshadow="2"
     inkscape:window-width="1920"
     inkscape:window-height="1001"
     id="namedview35"
     showgrid="false"
     inkscape:zoom="1.0488889"
     inkscape:cx="230.36629"
     inkscape:cy="149.62126"
     inkscape:window-x="2391"
     inkscape:window-y="-9"
     inkscape:window-maximized="1"
     inkscape:current-layer="Layer_1" />
  <defs
     id="defs4">
    <style
       id="style2">.cls-1{fill:#ed1c24;}.cls-2{fill:#fff;}</style>
  </defs>
  <title
     id="title6">logo_klb</title>
  <polygon
     class="cls-1"
     points="133.32,299.9 133.32,355.4 185.15,299.9 234.45,299.9 234.45,343.29 212.2,343.29 184.64,373.05 217.26,435.61 240.27,435.61 240.27,478.5 174.53,478.5 141.16,413.41 133.32,422.24 133.32,478.5 59.99,478.5 59.99,435.61 76.94,435.61 76.94,342.78 59.99,342.78 59.99,299.9 "
     id="polygon8"
     style="fill:#ed1c24"
     transform="translate(-52.436441,-296.63559)" />
  <polygon
     class="cls-1"
     points="350.25,299.9 350.25,342.78 330.79,342.78 330.79,431.83 397.79,431.83 397.79,478.5 253.42,478.5 253.42,435.61 270.36,435.61 270.36,342.78 253.42,342.78 253.42,299.9 "
     id="polygon10"
     style="fill:#ed1c24"
     transform="translate(-52.436441,-296.63559)" />
  <path
     class="cls-1"
     d="m 358.49356,138.97441 h 16.94 V 46.144407 h -16.94 V 3.2644071 h 94.81 q 20,0 32.87,3.91 12.87,3.9099999 20.1,10.3399999 a 34.15,34.15 0 0 1 10,14.76 53,53 0 0 1 2.78,16.9 q 0,14.89 -7.33,24 a 43.3,43.3 0 0 1 -16.94,13.12 q 16.44,5 24.91,16.900003 a 43.75,43.75 0 0 1 8.47,26 q 0,25.23 -16.69,39 -16.69,13.77 -48,13.75 h -104.98 z m 87.74,-67.100003 q 8.85,0 12,-3.78 a 14.44,14.44 0 0 0 3.16,-9.59 13.22,13.22 0 0 0 -3.16,-9 q -3.16,-3.65 -12,-3.66 h -14.41 v 26 h 14.41 z m 2.28,66.340003 q 8.08,0 12.77,-4 4.69,-4 4.68,-11.1 0,-7.31 -4.68,-11.22 -4.68,-3.91 -12.77,-3.91 h -16.69 v 30.27 h 16.69 z"
     id="path12"
     inkscape:connector-curvature="0"
     style="fill:#ed1c24" />
  <path
     class="cls-2"
     d="m 56.563559,240.36441 a 1.12,1.12 0 0 1 1.26,1.26 v 5 a 1.12,1.12 0 0 1 -1.26,1.26 h -19.15 v 55 a 1.12,1.12 0 0 1 -1.26,1.26 h -6 a 1.12,1.12 0 0 1 -1.26,-1.26 v -55 H 9.7735593 a 1.12,1.12 0 0 1 -1.26,-1.26 v -5 a 1.12,1.12 0 0 1 1.26,-1.26 z"
     id="path14"
     inkscape:connector-curvature="0"
     style="fill:#ffffff" />
  <path
     class="cls-2"
     d="m 145.43356,260.46441 c 0,13.48 -3.71,17.95 -13.82,19.3 l 14.24,22.67 c 0.67,0.93 0.25,1.69 -1,1.69 h -5.39 a 3.31,3.31 0 0 1 -3.37,-1.86 l -13.9,-22 h -12.74 v 22.58 c 0,1 -0.25,1.26 -1.26,1.26 h -6 c -1,0 -1.26,-0.25 -1.26,-1.26 v -61.09 c 0,-1 0.25,-1.18 1.26,-1.26 6,-0.42 13.23,-0.59 17.95,-0.59 19,0 25.28,3.2 25.28,20.56 m -36,-13.06 v 25.62 h 9.94 c 13.9,0 17.44,-0.59 17.44,-12.38 0,-11.63 -3.54,-13.23 -17.44,-13.23 h -9.94 z"
     id="path16"
     inkscape:connector-curvature="0"
     style="fill:#ffffff" />
  <path
     class="cls-2"
     d="m 225.40356,249.76441 14.41,53 c 0.17,1.1 0,1.35 -1,1.35 h -6.57 c -0.67,0 -0.84,-0.25 -1.09,-1.35 l -5.23,-18.62 h -25.36 l -5.31,18.62 c -0.25,1.1 -0.34,1.35 -1.1,1.35 h -6.59 c -1,0 -1.18,-0.25 -1,-1.35 l 14.91,-53 c 2.44,-8.68 3.88,-9.86 11.71,-9.86 8.68,0 9.86,1.18 12.22,9.86 m -15.84,2 -6.91,24.94 h 21.32 l -6.57,-24.94 c -1.1,-3.88 -1.26,-4.47 -4.21,-4.47 -2.44,0 -2.61,0.59 -3.62,4.47"
     id="path18"
     inkscape:connector-curvature="0"
     style="fill:#ffffff" />
  <path
     class="cls-2"
     d="m 333.76356,240.36441 a 1.14,1.14 0 0 1 1.26,1.35 v 61.17 a 1.12,1.12 0 0 1 -1.26,1.26 h -5.14 a 3,3 0 0 1 -2.95,-1.51 l -33.28,-50.14 v 50.39 a 1.12,1.12 0 0 1 -1.26,1.26 h -6 a 1.12,1.12 0 0 1 -1.26,-1.26 v -61.21 a 1.15,1.15 0 0 1 1.26,-1.35 h 5.73 c 3,0.08 3.54,0.5 4.8,2.44 l 30.9,46.43 v -47.52 a 1.14,1.14 0 0 1 1.26,-1.35 h 6 z"
     id="path20"
     inkscape:connector-curvature="0"
     style="fill:#ffffff" />
  <path
     class="cls-2"
     d="m 420.05356,241.16441 a 1,1 0 0 1 1.18,1.09 v 3.88 a 1,1 0 0 1 -1.1,1.26 h -19 c -7.42,0 -11,2.27 -11,7.5 v 1.47 c 0,4.21 1.18,6.49 6.32,8.6 l 18.37,7.58 c 7.75,3.2 9.69,8 9.69,14.66 v 2.7 c 0,12.81 -10.28,14.66 -22.24,14.66 a 170.91,170.91 0 0 1 -20.56,-1.2 1.12,1.12 0 0 1 -1,-1.35 v -3.79 a 1.07,1.07 0 0 1 1.18,-1.18 h 23.09 c 7.41,0 11,-2.11 11,-7.42 v -1.6 c 0,-4.3 -1.18,-7 -6.4,-9.1 l -20,-8.09 c -6.57,-2.53 -7.92,-7.92 -7.92,-14.33 v -2 c 0,-12.81 10,-14.58 22.08,-14.58 7,0 9.52,0.42 16.35,1.26"
     id="path22"
     inkscape:connector-curvature="0"
     style="fill:#ffffff" />
  <path
     class="cls-2"
     d="m 514.34356,260.46441 c 0,17.7 -6.32,19.8 -25.28,19.8 h -10.7 v 22.58 c 0,1 -0.25,1.26 -1.26,1.26 h -6 c -1,0 -1.26,-0.25 -1.26,-1.26 v -61.09 c 0,-1 0.25,-1.18 1.26,-1.26 6,-0.42 13.23,-0.59 17.95,-0.59 19,0 25.28,3.2 25.28,20.56 m -35.97,-13.1 v 25.62 h 9.94 c 13.9,0 17.44,-0.59 17.44,-12.38 0,-11.63 -3.54,-13.23 -17.44,-13.23 h -9.94 z"
     id="path24"
     inkscape:connector-curvature="0"
     style="fill:#ffffff" />
  <path
     class="cls-2"
     d="m 608.80356,272.36441 c 0,24.86 -5.14,32.19 -25.7,32.19 -20.56,0 -25.7,-7.33 -25.7,-32.19 0,-24.86 5.14,-32.44 25.7,-32.44 20.56,0 25.7,7.5 25.7,32.44 m -42.8,0 c 0,19.21 2.53,24.69 17.11,24.69 14.58,0 17.1,-5.48 17.1,-24.69 0,-19.21 -2.53,-25 -17.11,-25 -14.58,0 -17.11,5.65 -17.11,24.94"
     id="path26"
     inkscape:connector-curvature="0"
     style="fill:#ffffff" />
  <path
     class="cls-2"
     d="m 700.06356,260.46441 c 0,13.48 -3.71,17.95 -13.82,19.3 l 14.24,22.67 c 0.68,0.93 0.25,1.69 -1,1.69 h -5.39 a 3.31,3.31 0 0 1 -3.37,-1.86 l -13.9,-22 h -12.74 v 22.58 c 0,1 -0.25,1.26 -1.26,1.26 h -6 c -1,0 -1.26,-0.25 -1.26,-1.26 v -61.09 c 0,-1 0.25,-1.18 1.26,-1.26 6,-0.42 13.23,-0.59 17.95,-0.59 19,0 25.28,3.2 25.28,20.56 m -36,-13.06 v 25.62 h 9.94 c 13.9,0 17.44,-0.59 17.44,-12.38 0,-11.63 -3.54,-13.23 -17.44,-13.23 h -9.94 z"
     id="path28"
     inkscape:connector-curvature="0"
     style="fill:#ffffff" />
  <path
     class="cls-2"
     d="m 787.61356,240.36441 a 1.12,1.12 0 0 1 1.26,1.26 v 5 a 1.12,1.12 0 0 1 -1.26,1.26 h -19.12 v 55 a 1.12,1.12 0 0 1 -1.26,1.26 h -6 a 1.12,1.12 0 0 1 -1.26,-1.26 v -55 h -19.12 a 1.12,1.12 0 0 1 -1.26,-1.26 v -5 a 1.12,1.12 0 0 1 1.26,-1.26 h 46.77 z"
     id="path30"
     inkscape:connector-curvature="0"
     style="fill:#ffffff" />
  <path
     class="cls-2"
     d="m 792.97356,222.30441 -792.24000073,-0.57 v -20.28 l 772.83000073,0.55 0.19,-4.69 -0.46,-22.15 v -0.38 c 0.8,-14.47 0.37,-33 -1.54,-37.45 -3,-7.16 -7.75,-14 -10.94,-16 -13.25,-8.06 -48.38,-18.42 -60.79,-21.740003 l -4.28,-1.14 -2.07,-3.91 c -7.77,-14.66 -31.43,-54.82 -47.4,-64.46 -12.4,-7.49 -14.76,-7.51 -43.7,-7.78 -8.81,-0.08 -20.26,-0.19 -35,-0.57 V 176.14441 h -20.28 V 0.8644071 l 10.46,0.33 c 19.63,0.63 34.28,0.76 45,0.86 30.5,0.28 36.84,0.34 54,10.6999999 20.81,12.61 45.12,54.61 52.71,68.45 12.1,3.39 46.48,13.48 61.86,22.840003 10.38,6.31 17.22,21 19.07,25.35 4.6,10.82 3.6,37.53 3.14,46.11 l 0.46,22 z"
     id="path32"
     inkscape:connector-curvature="0"
     style="fill:#ffffff" />
</svg>
